<?xml version="1.0" encoding="utf-8"?>
<!-- Generator: Adobe Illustrator 25.3.1, SVG Export Plug-In . SVG Version: 6.00 Build 0)  -->
<svg version="1.1" id="Layer_1" xmlns="http://www.w3.org/2000/svg" xmlns:xlink="http://www.w3.org/1999/xlink" x="0px" y="0px"
	 viewBox="0 0 171.5 48.1" style="enable-background:new 0 0 171.5 48.1;" xml:space="preserve">
<style type="text/css">
	.st0{fill:#FB724E;}
	.st1{fill:#FFFFFF;}
</style>
<g>
	<path class="st0" d="M161.9,18.1c1,0,2,0,3,0c0.2,0,0.5-0.1,0.6-0.3c1.6-1.6,3.2-3.2,4.8-4.8c0.1-0.1,0.1-0.1,0.2-0.3H170
		c-2.8,0-5.5,0-8.3,0c-0.4,0-0.5-0.1-0.5-0.5c0-3.2,0-6.5,0-9.7V2.1c-0.1,0.1-0.1,0.1-0.2,0.1c-1.9,1.9-3.9,3.8-5.8,5.8
		c-0.1,0.1-0.2,0.3-0.2,0.5c0,1.3,0,2.6,0,3.9c0,0.3-0.1,0.4-0.4,0.4c-0.5,0-1,0-1.5,0c-0.3,0-0.5,0.1-0.7,0.3
		c-1.6,1.6-3.2,3.2-4.7,4.7c-0.1,0.1-0.2,0.2-0.3,0.3h0.5h6.5c0.6,0,0.6,0,0.6,0.6c0,6.9,0,13.8,0,20.6c0,0.3,0,0.5,0.2,0.7
		c1.7,1.6,3.3,3.3,5,4.9c0.1,0.1,0.4,0.2,0.6,0.2c2.5,0,5.1,0,7.6,0c0.4,0,0.4-0.1,0.4-0.5c0-1.5,0-2.9,0-4.4c0-0.6,0-0.6-0.6-0.6
		c-2.2,0-4.4,0-6.6,0c-0.5,0-0.5,0-0.5-0.5v-6.9V18.7C161.3,18.1,161.3,18.1,161.9,18.1"/>
	<path class="st0" d="M138.6,17.8c-0.1,0.1-0.2,0.3-0.2,0.5c0,8.8,0,17.7,0,26.5c0,0.3,0.1,0.4,0.4,0.4c1.7,0,3.5,0,5.2,0
		c0.5,0,0.5,0,0.5-0.5c0-10.8,0-21.5,0-32.3v-0.5c-0.1,0.1-0.1,0.1-0.2,0.1C142.5,14,140.6,15.9,138.6,17.8"/>
	<path class="st0" d="M144.2,1.3c-0.9,0-1.8,0-2.7,0s-1.8,0-2.7,0c-0.3,0-0.3,0.1-0.3,0.3c0,1.8,0,3.6,0,5.4c0,0.3,0.1,0.4,0.4,0.4
		c1.8,0,3.6,0,5.4,0c0.3,0,0.3-0.1,0.3-0.3c0-1.8,0-3.6,0-5.4C144.6,1.4,144.5,1.3,144.2,1.3"/>
	<path class="st1" d="M101.7,5.8c0-0.2,0-0.3,0-0.5h-6.8v0.6c0,10.2,0,20.3,0,30.5c0,1.8-0.9,2.7-2.7,2.7c-4.2,0-8.4,0-12.7,0
		c-1.7,0-2.6-0.9-2.6-2.6c0-3.2,0-6.5,0-9.7c0-1.3,0.7-2.2,1.9-2.4c0.4-0.1,0.7-0.1,1.1-0.1c3.9,0,7.8,0,11.7,0h0.5v-6.8
		c-0.2,0-0.3,0-0.4,0c-3.9,0-7.9,0-11.8,0c-1.3,0-2.5,0.2-3.7,0.6c-3.6,1.3-6,4.6-6,8.4c0,3.2,0,6.4,0,9.6c0,0.7,0,1.4,0.2,2.1
		c0.5,2.8,1.8,5,4.3,6.5c1.5,0.9,3.2,1.3,5,1.3c4,0,8,0,12,0c0.8,0,1.7-0.1,2.5-0.2c2.7-0.6,4.9-1.9,6.3-4.3c1-1.6,1.3-3.4,1.3-5.3
		C101.7,26,101.7,15.9,101.7,5.8"/>
	<path class="st1" d="M136,17.5h-6.8v0.6c0,6.9,0,13.7,0,20.6c0,0.3,0,0.5-0.4,0.5c-3.9,0-7.8,0-11.7,0c-1,0-1.9-0.2-2.8-0.6
		c-2.1-1.1-3.1-2.9-3.1-5.2c0-5.1,0-10.2,0-15.3v-0.5h-6.8c0,0.1,0,0.2,0,0.3c0,5.5,0,11,0.1,16.5c0,2.2,0.7,4.3,2,6.2
		c2.5,3.7,6.2,5.4,10.5,5.5c5.2,0.1,10.5,0,15.7,0c0.3,0,0.6,0,0.9-0.1c1.5-0.4,2.5-1.7,2.5-3.3c0-8.2,0-16.4,0-24.6
		C136,17.7,136,17.6,136,17.5"/>
	<path class="st1" d="M65.8,23.4c-2.3-3.8-5.8-5.6-10.1-5.9c-1.8-0.1-3.6,0-5.4,0c-3.6,0-7.3,0-10.9,0c-1.9,0-3.5,1.5-3.5,3.5
		c0,8.2,0,16.3,0,24.5v0.4h6.8v-0.5c0-6.9,0-13.8,0-20.7c0-0.3,0-0.5,0.4-0.5c3.9,0,7.9,0,11.8,0c0.9,0,1.7,0.2,2.5,0.6
		c2.1,1,3.2,2.8,3.2,5.1c0,5.2,0,10.4,0,15.5v0.5h6.8v-0.4c0-5.1,0-10.2,0-15.3C67.5,27.8,67.1,25.5,65.8,23.4"/>
	<path class="st1" d="M26.9,18.7v0.5c0,4.9,0,9.9,0,14.8c0,0.6,0,1.2-0.1,1.7c-0.2,2.8-2.1,4.7-4.9,4.9c-1.5,0.1-3,0.1-4.6,0.1
		c-0.6,0-1.2-0.1-1.9-0.2c-2.2-0.4-3.6-1.6-4.2-3.8c-0.2-0.7-0.3-1.4-0.3-2.2c0-5.1,0-10.3,0-15.4v-0.4h3.7
		c-2.3-3.4-4.5-6.7-6.8-10.1C5.5,12,3.3,15.3,1,18.7h0.5c0.8,0,1.7,0,2.5,0c0.6,0,0.6,0,0.6,0.6c0,4.9,0,9.8,0,14.7
		c0,1.3,0.1,2.6,0.3,3.8c0.3,2.3,1.2,4.4,3,6.1c1.7,1.7,3.9,2.4,6.2,2.8c0.7,0.1,1.4,0.2,2.2,0.3h5.2c0.2,0,0.3-0.1,0.5-0.1
		c1-0.1,2-0.2,2.9-0.4c3.2-0.7,5.6-2.4,7-5.5c0.8-1.7,1.2-3.5,1.2-5.4c0-5.5,0-11.1,0-16.6c0-0.1,0-0.2,0-0.4h-6.2V18.7z"/>
</g>
</svg>
